<svg id="Layer_1" data-name="Layer 1" xmlns="http://www.w3.org/2000/svg" viewBox="0 0 2400 800"><defs><style>.cls-1{fill:#dad6d6;}.cls-2{fill:#d5573b;}.cls-3{fill:#f4ac45;}.cls-4{fill:#92bfb1;}</style></defs><g id="Background"><rect class="cls-1" width="2400" height="800"/></g><g id="Logo"><polygon class="cls-2" points="331.05 325.39 478.77 622.34 144.46 288.28 331.05 325.39"/><polygon class="cls-3" points="478.65 622.47 330.92 325.52 598 168.93 478.65 622.47"/><polygon class="cls-4" points="144.46 288.28 441.42 436.01 598 168.93 144.46 288.28"/></g><path d="M808.58,252c76.56,0,137.89,61,137.89,137.51S885.14,526.29,808.58,526.29,671.07,466.11,671.07,389.54,732,252,808.58,252Zm0,267.41c72.75,0,131-57.14,131-129.9s-58.29-130.65-131-130.65-130.66,57.9-130.66,130.65S735.82,519.44,808.58,519.44Z"/><path d="M1003.62,634.09a2.6,2.6,0,0,1-2.67,2.67h-1.52a2.55,2.55,0,0,1-2.29-2.67V372.78a2.55,2.55,0,0,1,2.29-2.66H1001a2.6,2.6,0,0,1,2.67,2.66v14.1c8.76-8,26.28-20.57,54.85-20.57,43,0,75,34.28,75,79.23,0,45.71-30.09,80.75-78.47,80.75-24.76,0-43-11.42-51.42-19ZM1055,519.44c44.57,0,72-32,72-73.9,0-41.14-29.33-72.38-68.57-72.38-34.66,0-52.57,20.57-54.85,24V497C1005.52,499.63,1023.81,519.44,1055,519.44Z"/><path d="M1248.17,519.44c24,0,43.43-9.53,51.81-16.38,1.52-1.14,2.66-.38,3,.38l1.53,2.28c.76,1.15,0,1.91-.76,2.67-9.53,7.24-30.1,17.9-55.62,17.9-46.47,0-75-35.8-75-80.75,0-44.19,28.57-79.23,75-79.23,40.38,0,69.33,28.57,69.33,69.71,0,2.66-.38,9.52-1.52,11.42a3.15,3.15,0,0,1-2.29,1.53H1180.37C1181.51,488.58,1206.65,519.44,1248.17,519.44Zm62.09-77a41.55,41.55,0,0,0,.38-6.47c0-37.33-26.66-62.86-62.47-62.86-41.52,0-66.28,30.48-67.8,69.33Z"/><path d="M1365.88,372.78a2.6,2.6,0,0,1,2.66-2.66h1.53a2.6,2.6,0,0,1,2.66,2.66v21c9.52-10.28,29.71-27.42,59.43-27.42,41.13,0,63.23,24.76,63.23,70.85v82.66a2.6,2.6,0,0,1-2.67,2.66h-1.52a2.6,2.6,0,0,1-2.67-2.66V437.16c0-41.52-19.81-64-56.37-64-33.91,0-56.38,27-59.43,31.24V519.82a2.6,2.6,0,0,1-2.66,2.66h-1.53a2.6,2.6,0,0,1-2.66-2.66Z"/><path d="M1644.33,249.36a2.52,2.52,0,0,1,1.9-1.52h.76a2.54,2.54,0,0,1,1.91,1.52l115,270.46a1.59,1.59,0,0,1-1.15,2.28l-3.43,1.15c-1.14.38-1.52-.38-1.9-1.15l-33.9-79.61h-155.8l-34.28,79.61c-.38.77-.76,1.53-1.91,1.15l-3.42-1.15a1.59,1.59,0,0,1-1.15-2.28ZM1720.51,436l-73.9-174.47L1570.81,436Z"/><path d="M1810,258.51a2.6,2.6,0,0,1,2.66-2.67h78.47c47.62,0,80,24,80,67.42,0,31.24-19.05,52.95-48.38,61.71,33.9,6.48,56.76,27.81,56.76,65.9,0,42.66-35,71.61-85,71.61h-81.9a2.6,2.6,0,0,1-2.66-2.66Zm81.9,124.18c42.28,0,72.37-22.1,72.37-59.43,0-39.23-29.33-60.56-73.14-60.56h-74.28v120Zm2.66,132.94c46.47,0,78.09-25.9,78.09-64.76,0-42.28-30.85-61.33-73.52-61.33h-82.28V515.63Z"/><path d="M2048.11,258.51a2.6,2.6,0,0,1,2.66-2.67h155a2.6,2.6,0,0,1,2.66,2.67V260a2.61,2.61,0,0,1-2.66,2.67H2055V389.92h132.56a2.61,2.61,0,0,1,2.67,2.67v1.52a2.6,2.6,0,0,1-2.67,2.67H2055v123a2.6,2.6,0,0,1-2.66,2.66h-1.53a2.6,2.6,0,0,1-2.66-2.66Z"/></svg>